<svg version="1.1" xmlns="http://www.w3.org/2000/svg" viewBox="495 1065 1495 565">
    <path fill="currentColor" d="M1967.462,1611.575c-6.024,8.956-17.892,10.641-30.661,10.9c-12.776,0.239-26.441-0.832-36.264,2.228
        c-16.894,1.163-33.834,2.095-50.787,2.852c-16.953,0.562-33.919,0.959-50.868,1.262l-12.709,0.21l-12.702,0.053
        c-8.463,0.016-16.92,0.031-25.369,0.047c-8.445,0.005-16.881,0.009-25.307,0.014c-8.422-0.056-16.833-0.111-25.229-0.167
        c0.02-0.03,0.04-0.06,0.052-0.079c-1.469,0.67-3.314,0.879-4.753,0.055c-3.609,1.944-7.841-1.658-13.238-0.146
        c-4.21-1.991-13.007,2.5-18.451,0.073c-2.875,0.116-5.756,0.232-8.642,0.348c-2.887,0.078-5.779,0.157-8.675,0.236
        c-5.794,0.116-11.606,0.233-17.432,0.35c-11.652,0.19-23.36,0.301-35.082,0.396c-5.861,0.061-11.726,0.082-17.59,0.076
        c-5.864,0.012-11.726,0.025-17.583,0.037c-11.713,0.042-23.401,0.129-35.026,0.323c0.003,0.076,0.017,0.161,0.031,0.236
        c-23.481,1.035-50.192,1.831-76.782,2.373c-26.591,0.42-53.064,0.388-76.065-0.267c-12.658-0.315-26.394,2.438-38.329,0.65
        c-1.172,0.197-3.025,0.689-3.966,0.039c-3.387-0.245-7.55,1.336-10.49,0.294c-17.546,2.499-36.325,3.532-54.452,3.697
        c0.01-0.076,0.02-0.162,0.018-0.237c-21.953,0.183-43.902,2.27-65.446,2.259c-17.24,0.306-34.304,1.573-50.927,0.897
        c-0.007,0.175-0.022,0.332-0.039,0.503c-15.196-0.091-30.459,1.031-45.662,1.844c-7.601,0.406-15.188,0.736-22.741,0.798
        c-7.553,0.048-15.074-0.192-22.543-0.878c0,0.085,0.012,0.161,0.024,0.246c-20.278-0.607-40.208-0.174-60.094,0.026
        c-19.885,0.194-39.727,0.255-59.819-0.937c-21.523-3.814-43.637-3.233-65.537-4.355c-3.013-1.519-24.467-0.134-28.282-0.629
        c0,0.085,0.011,0.161,0.022,0.247c-20.273-0.052-40.571-0.732-60.906-1.486l-0.042-0.512c-27.081-0.189-54.253-0.326-81.092-0.298
        c-13.565-0.179-26.687,0.332-39.822-1.772c-2.801,0.369-6.198-1.269-8.239,1.639c-15.961-0.109-31.245,0.85-47.207,0.681
        l0.014-0.227c-49.922-1.156-100.765,1.969-150.1-0.895c-29.508,1.361-58.852,3.761-88.309,0.564
        c-20.301-1.65-40.879-1.876-61.055-2.686c-7.31-1.237-16.103-2.299-23.395-1.39c-2.789,0.532-5.313-0.554-7.943-0.94
        c-5.212,0.776-12.29,0.865-18.115,0.44c-5.141-0.404-9.395-3.28-14.679-3.27c-17.279-1.277-25.226-8.834-32.221-21.14
        c-3.908-6.577,15.705-8.945,37.691-9.819c21.975-0.863,46.287-0.217,51.655-0.528c19.348,0.033,38.819,0.766,58.029,1.171
        c11.956-0.53,24.938,0.805,37.291,0.591l0,0.01c2.853,0.057,7.985,0.16,10.901,0.218c0.02-0.17,0.035-0.34,0.044-0.511
        c56.678,1.361,113.123,3.459,169.712,6.404c7.843,0.343,15.833-0.387,23.634-0.45c13.575,0.123,27.076,2.097,40.872,1.961
        l-0.087-0.238c1.852-1.027,4.072-0.816,6.107-0.362c3.771,1.016,8.123-0.481,11.657,1.081c0.966-0.419,2.253-0.461,3.117,0.156
        c22.139-2.267,44.793-2.014,67.738-1.212c22.944,0.757,46.179,1.99,69.456,1.676c-0.438,0.064-0.831,0.194-1.035,0.639
        c19.079,0.058,38.217,0.117,57.292,0.175l0.035-0.512c-0.86-0.008-11.738,0.014-12.25-0.164
        c22.512-0.932,45.094,0.438,67.631-0.256c-0.011,0.076-0.023,0.161-0.023,0.237c19.691,0.034,39.38-0.011,59.069-0.067
        l-0.089,0.266c1.549,0.631,3.065,0.931,4.486-0.153c0.023,0.047,0.056,0.076,0.101,0.114l-0.011,0.028
        c1.87,0.996,5.784,1.249,7.369-0.217c2.802,1.624,7.939,1.544,9.915-0.1c5.265,0.057,10.398,0.221,15.569,0.094
        c-0.437,0.06-0.829,0.23-1.164,0.63c2.187,0.001,4.374,0.002,6.55,0.004c-0.395-0.538-0.979-0.611-1.573-0.636
        c8.461,1.192,16.387,1.344,25.132,1.404l-0.102-0.17c16.818-0.514,34.306-0.734,51.902-1.008
        c17.596-0.269,35.302-0.54,52.562-0.803c0.001,0.076-0.009,0.161-0.02,0.237c102.102,0.023,207.276-5.534,308.705-3.699
        c24.564,0.254,49.163,0.616,73.76,0.466c12.297-0.103,24.597-0.291,36.896-0.61c12.298-0.337,24.602-0.72,36.887-1.473
        c11.687-0.61,23.454-0.52,35.187-0.547c11.731-0.035,23.432-0.131,34.953-1.337c8.39,1.148,17.799-0.959,26.522,0.208
        c2.869,0.293,5.473-1.924,8.172-1.187c1.783-0.748,4.883-0.815,6.264,0.377c16.498-0.402,33.026-1.124,49.599-1.698
        c8.286-0.3,16.579-0.601,24.874-0.902c4.15-0.135,8.296-0.311,12.44-0.514l12.437-0.574c8.292-0.381,16.584-0.763,24.87-1.144
        l12.427-0.57c4.142-0.182,8.281-0.377,12.411-0.634c16.532-0.956,33.028-1.911,49.456-2.861c2.169-0.205,4.145-0.185,5.953-0.016
        c1.806,0.152,3.447,0.469,4.953,0.897c3.01,0.856,5.478,2.153,7.63,3.453c4.305,2.6,7.352,5.21,10.958,4.321
        c8.68-1.484,17.582-3.449,25.997-0.384C1961.88,1601.305,1969.695,1605.424,1967.462,1611.575z"/>
</svg>